<svg xmlns="http://www.w3.org/2000/svg" viewBox="0 0 64 64">
  <defs>
    <!-- App background (matches the screenshot’s cool gray) -->
    <linearGradient id="bgGrad" x1="0%" y1="0%" x2="0%" y2="100%">
      <stop offset="0%" stop-color="#b9bec7"/>
      <stop offset="55%" stop-color="#9ea5b0"/>
      <stop offset="100%" stop-color="#888f9a"/>
    </linearGradient>
    <radialGradient id="bgVignette" cx="30%" cy="20%" r="90%">
      <stop offset="0%" stop-color="rgba(255,255,255,0.35)"/>
      <stop offset="65%" stop-color="rgba(255,255,255,0)"/>
      <stop offset="100%" stop-color="rgba(0,0,0,0.18)"/>
    </radialGradient>

    <!-- Button fills (copied from the CSS you posted) -->
    <linearGradient id="numGrad" x1="0%" y1="0%" x2="0%" y2="100%">
      <stop offset="0%" stop-color="#545454"/>
      <stop offset="45%" stop-color="#3d3d3d"/>
      <stop offset="100%" stop-color="#2a2a2a"/>
    </linearGradient>
    <linearGradient id="redGrad" x1="0%" y1="0%" x2="0%" y2="100%">
      <stop offset="0%" stop-color="#9d5565"/>
      <stop offset="50%" stop-color="#7a3d4a"/>
      <stop offset="100%" stop-color="#5d2f39"/>
    </linearGradient>

    <!-- Subtle bezel gradient for the dark outer frame around each key -->
    <linearGradient id="bezelGrad" x1="0%" y1="0%" x2="0%" y2="100%">
      <stop offset="0%" stop-color="#4b4e56"/>
      <stop offset="45%" stop-color="#2e3137"/>
      <stop offset="100%" stop-color="#1b1d22"/>
    </linearGradient>

    <!-- Inset highlights / shadows (approximate CSS inset shadows) -->
    <linearGradient id="insetTop" x1="0%" y1="0%" x2="0%" y2="100%">
      <stop offset="0%" stop-color="rgba(255,255,255,0.55)"/>
      <stop offset="55%" stop-color="rgba(255,255,255,0)"/>
    </linearGradient>
    <linearGradient id="insetBottom" x1="0%" y1="0%" x2="0%" y2="100%">
      <stop offset="0%" stop-color="rgba(255,255,255,0)"/>
      <stop offset="70%" stop-color="rgba(255,255,255,0)"/>
      <stop offset="100%" stop-color="rgba(255,255,255,0.16)"/>
    </linearGradient>
    <linearGradient id="insetBottomShadow" x1="0%" y1="0%" x2="0%" y2="100%">
      <stop offset="0%" stop-color="rgba(0,0,0,0)"/>
      <stop offset="82%" stop-color="rgba(0,0,0,0)"/>
      <stop offset="100%" stop-color="rgba(0,0,0,0.42)"/>
    </linearGradient>

    <!-- Multi-drop-shadow stack to mimic the CSS list closely -->
    <filter id="keyShadow" x="-35%" y="-30%" width="170%" height="200%">
      <!-- 1px / subtle ambient -->
      <feDropShadow dx="1" dy="1" stdDeviation="0.6" flood-color="#000" flood-opacity="0.12"/>
      <!-- deeper key shadow -->
      <feDropShadow dx="0" dy="7" stdDeviation="2.3" flood-color="#000" flood-opacity="0.30"/>
    </filter>

    <!-- Text shadow (matches text-shadow in CSS) -->
    <filter id="textShadow" x="-30%" y="-30%" width="160%" height="160%">
      <feDropShadow dx="1" dy="2" stdDeviation="1" flood-color="#000" flood-opacity="0.55"/>
    </filter>

    <!-- Reusable keycap shape with different top/bottom radii (approx border-radius: 6 6 12 12) -->
    <path id="keycapPath" d="
      M 0 4
      A 4 4 0 0 1 4 0
      H 22
      A 4 4 0 0 1 26 4
      V 18
      A 7 7 0 0 1 19 25
      H 7
      A 7 7 0 0 1 0 18
      Z
    "/>
    <path id="bezelPath" d="
      M 0 5
      A 5 5 0 0 1 5 0
      H 25
      A 5 5 0 0 1 30 5
      V 20
      A 9 9 0 0 1 21 29
      H 9
      A 9 9 0 0 1 0 20
      Z
    "/>
  </defs>

  <!-- Background -->
  <rect width="64" height="64" rx="6" fill="url(#bgGrad)"/>
  <rect width="64" height="64" rx="6" fill="url(#bgVignette)"/>

  <!-- Key helper: draws one key at (x,y) with a chosen fill -->
  <!-- Top-left: C (red) -->
  <g transform="translate(3,3)" filter="url(#keyShadow)">
    <!-- outer ring (0 0 0 3px rgba(0,0,0,0.1) + border) -->
    <!-- <use href="#bezelPath" fill="rgba(0,0,0,0.10)"/>
    <use href="#bezelPath" fill="url(#bezelGrad)" transform="translate(1,1)"/>
    <use href="#bezelPath" fill="none" stroke="rgba(0,0,0,0.8)" stroke-width="1" transform="translate(1,1)"/> -->

    <!-- keycap -->
    <g transform="translate(2,2)">
      <use href="#keycapPath" fill="url(#redGrad)"/>
      <use href="#keycapPath" fill="none" stroke="#0b0c10" stroke-width="1"/>

      <!-- inset edges (inset ±1px) -->
      <use href="#keycapPath" fill="none" stroke="rgba(0,0,0,0.30)" stroke-width="1" opacity="0.6"/>

      <!-- top inner highlight (inset 0 1 1 0 rgba(255,255,255,0.5)) -->
      <path d="M 2 2 H 24" stroke="rgba(255,255,255,0.55)" stroke-width="1.2" stroke-linecap="round"/>
      <rect x="1" y="1" width="24" height="10" rx="3" fill="url(#insetTop)" opacity="0.85"/>

      <!-- bottom inner glow + shadow -->
      <rect x="1" y="1" width="24" height="24" rx="5" fill="url(#insetBottom)"/>
      <rect x="1" y="1" width="24" height="24" rx="5" fill="url(#insetBottomShadow)"/>

      <!-- side inset shadows (inset ±1px) -->
      <rect x="1.3" y="3" width="1" height="18" fill="rgba(0,0,0,0.30)" opacity="0.45"/>
      <rect x="23.7" y="3" width="1" height="18" fill="rgba(0,0,0,0.30)" opacity="0.45"/>
    </g>
  </g>
  <text x="16" y="19" font-family="system-ui, -apple-system, sans-serif" font-weight="500" font-size="16" fill="#fff" text-anchor="middle" dominant-baseline="middle" filter="url(#textShadow)">C</text>

  <!-- Top-right: 1 (dark) -->
  <g transform="translate(34,3)" filter="url(#keyShadow)">
    <!-- <use href="#bezelPath" fill="rgba(0,0,0,0.10)"/>
    <use href="#bezelPath" fill="url(#bezelGrad)" transform="translate(1,1)"/>
    <use href="#bezelPath" fill="none" stroke="rgba(0,0,0,0.8)" stroke-width="1" transform="translate(1,1)"/> -->
    <g transform="translate(2,2)">
      <use href="#keycapPath" fill="url(#numGrad)"/>
      <use href="#keycapPath" fill="none" stroke="#0b0c10" stroke-width="1"/>
      <use href="#keycapPath" fill="none" stroke="rgba(0,0,0,0.30)" stroke-width="1" opacity="0.6"/>
      <path d="M 2 2 H 24" stroke="rgba(255,255,255,0.55)" stroke-width="1.2" stroke-linecap="round"/>
      <rect x="1" y="1" width="24" height="10" rx="3" fill="url(#insetTop)" opacity="0.85"/>
      <rect x="1" y="1" width="24" height="24" rx="5" fill="url(#insetBottom)"/>
      <rect x="1" y="1" width="24" height="24" rx="5" fill="url(#insetBottomShadow)"/>
      <rect x="1.3" y="3" width="1" height="18" fill="rgba(0,0,0,0.30)" opacity="0.45"/>
      <rect x="23.7" y="3" width="1" height="18" fill="rgba(0,0,0,0.30)" opacity="0.45"/>
    </g>
  </g>
  <text x="47" y="19" font-family="system-ui, -apple-system, sans-serif" font-weight="500" font-size="17" fill="#fff" text-anchor="middle" dominant-baseline="middle" filter="url(#textShadow)">1</text>

  <!-- Bottom-left: AC (red) -->
  <g transform="translate(3,34)" filter="url(#keyShadow)">
    <!-- <use href="#bezelPath" fill="rgba(0,0,0,0.10)"/>
    <use href="#bezelPath" fill="url(#bezelGrad)" transform="translate(1,1)"/>
    <use href="#bezelPath" fill="none" stroke="rgba(0,0,0,0.8)" stroke-width="1" transform="translate(1,1)"/> -->
    <g transform="translate(2,2)">
      <use href="#keycapPath" fill="url(#redGrad)"/>
      <use href="#keycapPath" fill="none" stroke="#0b0c10" stroke-width="1"/>
      <use href="#keycapPath" fill="none" stroke="rgba(0,0,0,0.30)" stroke-width="1" opacity="0.6"/>
      <path d="M 2 2 H 24" stroke="rgba(255,255,255,0.55)" stroke-width="1.2" stroke-linecap="round"/>
      <rect x="1" y="1" width="24" height="10" rx="3" fill="url(#insetTop)" opacity="0.85"/>
      <rect x="1" y="1" width="24" height="24" rx="5" fill="url(#insetBottom)"/>
      <rect x="1" y="1" width="24" height="24" rx="5" fill="url(#insetBottomShadow)"/>
      <rect x="1.3" y="3" width="1" height="18" fill="rgba(0,0,0,0.30)" opacity="0.45"/>
      <rect x="23.7" y="3" width="1" height="18" fill="rgba(0,0,0,0.30)" opacity="0.45"/>
    </g>
  </g>
  <text x="16" y="50" font-family="system-ui, -apple-system, sans-serif" font-weight="500" font-size="12" fill="#fff" text-anchor="middle" dominant-baseline="middle" filter="url(#textShadow)">AC</text>

  <!-- Bottom-right: 0 (dark) -->
  <g transform="translate(34,34)" filter="url(#keyShadow)">
    <!-- <use href="#bezelPath" fill="rgba(0,0,0,0.10)"/>
    <use href="#bezelPath" fill="url(#bezelGrad)" transform="translate(1,1)"/>
    <use href="#bezelPath" fill="none" stroke="rgba(0,0,0,0.8)" stroke-width="1" transform="translate(1,1)"/> -->
    <g transform="translate(2,2)">
      <use href="#keycapPath" fill="url(#numGrad)"/>
      <use href="#keycapPath" fill="none" stroke="#0b0c10" stroke-width="1"/>
      <use href="#keycapPath" fill="none" stroke="rgba(0,0,0,0.30)" stroke-width="1" opacity="0.6"/>
      <path d="M 2 2 H 24" stroke="rgba(255,255,255,0.55)" stroke-width="1.2" stroke-linecap="round"/>
      <rect x="1" y="1" width="24" height="10" rx="3" fill="url(#insetTop)" opacity="0.85"/>
      <rect x="1" y="1" width="24" height="24" rx="5" fill="url(#insetBottom)"/>
      <rect x="1" y="1" width="24" height="24" rx="5" fill="url(#insetBottomShadow)"/>
      <rect x="1.3" y="3" width="1" height="18" fill="rgba(0,0,0,0.30)" opacity="0.45"/>
      <rect x="23.7" y="3" width="1" height="18" fill="rgba(0,0,0,0.30)" opacity="0.45"/>
    </g>
  </g>
  <text x="47" y="50" font-family="system-ui, -apple-system, sans-serif" font-weight="500" font-size="17" fill="#fff" text-anchor="middle" dominant-baseline="middle" filter="url(#textShadow)">0</text>
</svg>
